<svg version="1.1" xmlns="http://www.w3.org/2000/svg" viewBox="0 0 1066.3074265975852 322" width="1066.3074265975852" height="322">
  <!-- svg-source:excalidraw -->
  
  <defs>
    <style>
      @font-face {
        font-family: "Virgil";
        src: url("https://excalidraw.com/Virgil.woff2");
      }
      @font-face {
        font-family: "Cascadia";
        src: url("https://excalidraw.com/Cascadia.woff2");
      }
    </style>
  </defs>
  <g stroke-linecap="round" transform="translate(617.6418665502026 183.15338621012006) rotate(0 28.235452886238022 30.836086704707327)"><path d="M1.91 1.98 C10.75 1.13, 22.47 1.93, 58.25 1.76 M-0.47 -0.9 C14.25 -0.75, 28.18 -0.29, 56.54 0.53 M54.81 -1.18 C56.16 19.24, 57.42 33.06, 56.42 61.04 M56.57 0.76 C56.62 21.85, 56.66 45.43, 56.25 62.24 M55.02 60.46 C38.74 63.18, 18.2 63.12, 1 63 M55.58 61.21 C36.54 61.83, 15.87 62.72, -0.49 61.55 M-0.22 62.46 C0.08 35.87, 0.31 14.06, -0.61 -1.46 M0.63 61.55 C0.21 42.05, -0.04 23.36, -0.85 -0.31" stroke="#000000" stroke-width="1" fill="none"></path></g><g stroke-linecap="round" transform="translate(174.39461923330384 148.23109970942892) rotate(0 41.00216924532958 37.67264460268342)"><path d="M1.21 1.55 C21.32 1.16, 43.32 -0.27, 81.85 -1.98 M0.25 -0.1 C26.15 -1.73, 51.78 -1.79, 81.32 -0.83 M82.76 -1.38 C81.58 22.62, 83.73 48.25, 81.8 76.71 M81.49 0.99 C82.48 18.02, 80.83 34.59, 82.28 75.66 M82.35 73.52 C58.19 73.92, 38.21 74.09, -0.81 75.12 M82.54 74.45 C61.59 76.76, 41.39 75.4, 0.25 75.88 M-1.82 73.62 C-1.46 56.8, -1.21 42.74, -0.28 -1.91 M-0.69 75.09 C-0.63 46.85, -1.31 19.56, 0.18 -0.1" stroke="#000000" stroke-width="1" fill="none"></path></g><g stroke-linecap="round" transform="translate(406.3271990976898 182.15984322990084) rotate(0 46.432591918583455 33.12623668974709)"><path d="M1.19 -1.92 C22.17 -0.9, 42.91 -2.11, 92.16 1.96 M-0.46 0.04 C23.5 0.78, 44.77 0.89, 92.05 -0.8 M91.26 1.35 C94.15 15.33, 92.12 30.85, 91.25 65.69 M92.78 0.5 C93.56 23.73, 92.41 48.46, 91.96 65.75 M91.9 67.35 C59.33 67.9, 23.78 68.56, 1.6 67.66 M92.22 65.62 C57.08 65.59, 22.34 66.2, -0.09 67.16 M0.5 67.69 C0.66 49.01, 0.36 36.08, 1.3 -1.77 M0.41 67.16 C-1.28 41.01, -0.72 16.14, -0.86 -0.64" stroke="#000000" stroke-width="1" fill="none"></path></g><g stroke-linecap="round"><g transform="translate(686.0573418414408 220.2166702195982) rotate(0 46.89168166098432 -1.3919581113636923)"><path d="M-1.48 0.23 C26.79 0.9, 55.34 0.15, 94.63 -3.24 M-0.5 0.17 C37.12 -0.93, 73.55 -2.85, 95.26 -3.03" stroke="#000000" stroke-width="1" fill="none"></path></g><g transform="translate(686.0573418414408 220.2166702195982) rotate(0 46.89168166098432 -1.3919581113636923)"><path d="M65.85 8.15 C74.54 6.47, 83.48 3.73, 93.85 -2.26 M66.82 8.09 C78.75 3.76, 89.46 -0.78, 94.48 -2.05" stroke="#000000" stroke-width="1" fill="none"></path></g><g transform="translate(686.0573418414408 220.2166702195982) rotate(0 46.89168166098432 -1.3919581113636923)"><path d="M65.35 -12.37 C74.04 -8.13, 83.11 -4.96, 93.85 -2.26 M66.33 -12.43 C78.34 -9, 89.23 -5.79, 94.48 -2.05" stroke="#000000" stroke-width="1" fill="none"></path></g></g><g transform="translate(289.65706125460156 332.93597981681535) rotate(162.35589361215713 -63.13785167344656 -68.20389729774581)" stroke="none" fill="#000000"><path d="M -41.26,-41.46 Q -41.26,-41.46 -40.65,-41.98 -40.04,-42.50 -39.10,-43.71 -38.17,-44.91 -37.44,-45.85 -36.70,-46.78 -36.00,-47.65 -35.30,-48.52 -34.65,-49.54 -34.00,-50.55 -33.34,-52.02 -32.68,-53.48 -32.22,-55.00 -31.76,-56.51 -31.64,-57.57 -31.52,-58.64 -31.37,-60.17 -31.23,-61.70 -31.25,-63.40 -31.26,-65.09 -31.35,-66.37 -31.44,-67.64 -31.79,-69.20 -32.13,-70.76 -32.65,-72.22 -33.16,-73.69 -33.75,-74.99 -34.33,-76.29 -34.75,-77.29 -35.17,-78.29 -35.96,-79.86 -36.75,-81.44 -37.71,-82.77 -38.67,-84.10 -39.46,-85.02 -40.24,-85.93 -41.79,-87.21 -43.34,-88.49 -44.50,-89.08 -45.65,-89.68 -47.64,-90.54 -49.63,-91.40 -51.42,-92.02 -53.21,-92.64 -54.50,-93.01 -55.79,-93.38 -56.94,-93.71 -58.09,-94.03 -59.67,-94.17 -61.25,-94.31 -63.42,-94.15 -65.59,-93.98 -66.72,-93.85 -67.85,-93.73 -69.33,-93.42 -70.81,-93.11 -72.14,-92.47 -73.47,-91.84 -74.92,-91.15 -76.36,-90.46 -77.46,-89.67 -78.56,-88.88 -79.63,-87.90 -80.70,-86.91 -81.40,-85.96 -82.10,-85.01 -82.68,-83.91 -83.26,-82.81 -83.70,-81.59 -84.14,-80.38 -84.68,-78.68 -85.22,-76.98 -85.55,-75.49 -85.89,-74.01 -86.31,-72.02 -86.73,-70.03 -86.86,-68.45 -87.00,-66.88 -87.03,-65.15 -87.05,-63.43 -86.91,-61.74 -86.76,-60.05 -86.56,-58.66 -86.35,-57.26 -86.08,-55.54 -85.81,-53.81 -85.53,-52.48 -85.25,-51.14 -84.82,-49.74 -84.38,-48.35 -84.00,-46.83 -83.61,-45.30 -83.12,-43.87 -82.64,-42.45 -83.04,-40.78 -83.44,-39.11 -85.25,-38.73 -87.06,-38.35 -88.28,-38.99 -89.51,-39.62 -90.73,-40.31 -91.96,-41.01 -93.51,-42.11 -95.05,-43.21 -96.17,-44.00 -97.30,-44.79 -98.31,-45.52 -99.32,-46.24 -99.56,-46.38 -99.80,-46.52 -99.97,-46.84 -100.14,-47.16 -100.23,-47.52 -100.32,-47.87 -100.33,-48.23 -100.33,-48.60 -100.25,-48.95 -100.16,-49.31 -100.00,-49.63 -99.83,-49.95 -99.59,-50.23 -99.35,-50.50 -99.05,-50.71 -98.76,-50.92 -98.42,-51.05 -98.08,-51.19 -97.72,-51.23 -97.36,-51.28 -97.00,-51.24 -96.63,-51.20 -96.29,-51.08 -95.95,-50.95 -95.65,-50.75 -95.35,-50.54 -95.10,-50.27 -94.86,-50.00 -96.29,-50.49 -97.71,-50.98 -96.12,-50.50 -94.53,-50.02 -93.59,-49.51 -92.65,-49.01 -91.27,-48.49 -89.88,-47.96 -88.18,-47.24 -86.48,-46.52 -85.15,-45.87 -83.81,-45.23 -85.20,-45.10 -86.59,-44.98 -86.01,-46.91 -85.42,-48.84 -84.93,-50.47 -84.44,-52.10 -82.52,-53.53 -80.60,-54.96 -80.42,-55.06 -80.23,-55.16 -80.02,-55.20 -79.81,-55.23 -79.60,-55.20 -79.39,-55.16 -79.20,-55.07 -79.02,-54.97 -78.87,-54.81 -78.72,-54.66 -78.63,-54.47 -78.54,-54.27 -78.52,-54.06 -78.49,-53.85 -78.54,-53.64 -78.58,-53.44 -78.69,-53.25 -78.80,-53.07 -78.96,-52.93 -79.13,-52.80 -79.32,-52.72 -79.52,-52.64 -79.73,-52.62 -79.94,-52.61 -80.15,-52.67 -80.35,-52.73 -80.53,-52.84 -80.71,-52.96 -80.84,-53.13 -80.96,-53.30 -81.03,-53.50 -81.10,-53.70 -81.10,-53.91 -81.10,-54.13 -81.04,-54.33 -80.97,-54.53 -80.84,-54.70 -80.71,-54.87 -80.54,-54.99 -80.36,-55.11 -80.16,-55.17 -79.95,-55.22 -79.74,-55.21 -79.53,-55.20 -79.33,-55.12 -79.13,-55.05 -78.97,-54.91 -78.81,-54.77 -78.70,-54.59 -78.59,-54.41 -78.54,-54.20 -78.50,-53.99 -78.52,-53.78 -78.54,-53.57 -78.63,-53.38 -78.72,-53.19 -78.86,-53.03 -79.01,-52.88 -79.01,-52.88 -79.01,-52.88 -79.16,-50.89 -79.31,-48.90 -79.93,-46.91 -80.56,-44.91 -80.97,-43.72 -81.39,-42.52 -82.66,-41.37 -83.93,-40.22 -85.33,-40.32 -86.73,-40.42 -87.82,-40.83 -88.91,-41.25 -90.39,-41.87 -91.87,-42.50 -93.63,-43.18 -95.38,-43.86 -96.09,-44.74 -96.80,-45.61 -98.30,-46.07 -99.80,-46.52 -99.97,-46.84 -100.14,-47.16 -100.23,-47.52 -100.32,-47.87 -100.32,-48.23 -100.33,-48.60 -100.25,-48.95 -100.16,-49.31 -100.00,-49.63 -99.83,-49.95 -99.59,-50.23 -99.35,-50.50 -99.06,-50.71 -98.76,-50.92 -98.42,-51.05 -98.08,-51.19 -97.72,-51.23 -97.36,-51.28 -97.00,-51.24 -96.63,-51.20 -96.29,-51.08 -95.95,-50.95 -95.65,-50.75 -95.35,-50.54 -95.10,-50.27 -94.86,-50.00 -95.18,-50.37 -95.51,-50.73 -94.44,-50.12 -93.37,-49.51 -92.31,-48.72 -91.25,-47.93 -90.06,-47.08 -88.87,-46.22 -87.59,-45.01 -86.30,-43.80 -87.29,-42.49 -88.29,-41.18 -88.77,-42.53 -89.26,-43.87 -89.59,-45.16 -89.93,-46.44 -90.48,-48.20 -91.03,-49.95 -91.33,-51.33 -91.62,-52.72 -91.91,-54.47 -92.20,-56.21 -92.45,-57.98 -92.70,-59.74 -92.85,-61.43 -93.01,-63.11 -92.98,-64.95 -92.96,-66.79 -92.80,-68.91 -92.64,-71.04 -92.21,-73.12 -91.78,-75.20 -91.37,-77.01 -90.95,-78.82 -90.37,-80.66 -89.78,-82.51 -89.25,-83.94 -88.73,-85.38 -87.89,-86.95 -87.05,-88.51 -85.97,-89.91 -84.88,-91.31 -83.57,-92.51 -82.26,-93.71 -81.37,-94.39 -80.47,-95.07 -79.04,-95.83 -77.62,-96.60 -76.07,-97.40 -74.52,-98.20 -73.51,-98.61 -72.49,-99.03 -70.52,-99.46 -68.54,-99.88 -67.30,-100.02 -66.07,-100.16 -64.62,-100.27 -63.18,-100.38 -60.97,-100.36 -58.76,-100.34 -57.57,-100.15 -56.37,-99.96 -55.21,-99.62 -54.06,-99.28 -52.68,-98.86 -51.30,-98.45 -50.25,-98.09 -49.19,-97.73 -48.19,-97.34 -47.19,-96.94 -46.15,-96.47 -45.11,-96.01 -43.95,-95.47 -42.79,-94.93 -41.31,-94.09 -39.83,-93.25 -38.73,-92.40 -37.63,-91.54 -36.69,-90.58 -35.76,-89.61 -34.33,-87.70 -32.90,-85.80 -31.89,-84.00 -30.87,-82.20 -30.10,-80.35 -29.32,-78.50 -28.76,-77.03 -28.20,-75.57 -27.64,-73.72 -27.09,-71.88 -26.88,-70.83 -26.67,-69.78 -26.47,-68.20 -26.27,-66.62 -26.30,-65.02 -26.32,-63.42 -26.40,-61.82 -26.48,-60.21 -26.70,-59.04 -26.93,-57.86 -27.17,-56.51 -27.40,-55.17 -27.75,-54.06 -28.10,-52.95 -28.58,-51.74 -29.06,-50.53 -29.71,-49.32 -30.35,-48.12 -31.21,-46.89 -32.06,-45.67 -32.74,-44.84 -33.42,-44.00 -34.14,-43.09 -34.85,-42.18 -35.96,-40.88 -37.07,-39.58 -37.97,-38.96 -38.86,-38.34 -39.75,-38.52 -40.64,-38.70 -40.81,-38.68 -40.98,-38.66 -41.15,-38.69 -41.32,-38.71 -41.47,-38.78 -41.63,-38.84 -41.77,-38.94 -41.91,-39.04 -42.02,-39.17 -42.13,-39.30 -42.21,-39.45 -42.28,-39.60 -42.32,-39.77 -42.36,-39.94 -42.36,-40.11 -42.35,-40.28 -42.31,-40.44 -42.26,-40.61 -42.18,-40.76 -42.10,-40.91 -41.98,-41.03 -41.87,-41.16 -41.73,-41.25 -41.58,-41.35 -41.42,-41.41 -41.26,-41.46 -41.26,-41.46 L -41.26,-41.46 Z"></path></g><g stroke-linecap="round"><g transform="translate(266.616716745983 153.135136975889) rotate(0 32.52073043754888 -37.053736697126254)"><path d="M1.79 1.64 C17.63 -20, 33.26 -39.01, 65.21 -74.68 M-0.16 0.67 C20.57 -24.1, 41.99 -48.67, 65.08 -75.75" stroke="#000000" stroke-width="1" fill="none"></path></g><g transform="translate(266.616716745983 153.135136975889) rotate(0 32.52073043754888 -37.053736697126254)"><path d="M56.32 -46.02 C57.64 -55.25, 58.85 -61.7, 64.42 -74.18 M54.37 -47 C57.81 -56.35, 61.51 -65.48, 64.29 -75.25" stroke="#000000" stroke-width="1" fill="none"></path></g><g transform="translate(266.616716745983 153.135136975889) rotate(0 32.52073043754888 -37.053736697126254)"><path d="M40.74 -59.37 C46.09 -65.07, 51.36 -68.05, 64.42 -74.18 M38.78 -60.35 C47.34 -65.42, 56.03 -70.27, 64.29 -75.25" stroke="#000000" stroke-width="1" fill="none"></path></g></g><g stroke-linecap="round"><g transform="translate(275.42380107825363 184.0306526468206) rotate(0 59.58817001869721 11.77171219401896)"><path d="M-1.41 -0.7 C40.26 8, 81.34 15.73, 120.59 23.9 M-0.51 0.45 C28.46 5.66, 57.35 11.42, 119.66 24.25" stroke="#000000" stroke-width="1" fill="none"></path></g><g transform="translate(275.42380107825363 184.0306526468206) rotate(0 59.58817001869721 11.77171219401896)"><path d="M88.58 27.95 C98.9 26.47, 108.9 24.33, 120.12 23.84 M89.48 29.1 C97.05 27.14, 104.33 26.05, 119.2 24.18" stroke="#000000" stroke-width="1" fill="none"></path></g><g transform="translate(275.42380107825363 184.0306526468206) rotate(0 59.58817001869721 11.77171219401896)"><path d="M92.69 7.84 C101.79 13.25, 110.38 18.02, 120.12 23.84 M93.59 8.99 C100.03 11.83, 106.32 15.54, 119.2 24.18" stroke="#000000" stroke-width="1" fill="none"></path></g></g><g stroke-linecap="round"><g transform="translate(507.2463729528597 216.19553963467968) rotate(0 48.479285830013964 0.7648464226510328)"><path d="M1.25 0.84 C25.59 -0.1, 48.07 -1.69, 96.84 1.99 M-0.68 -0.45 C29.05 0.12, 57.32 -1.21, 97.64 0.25" stroke="#000000" stroke-width="1" fill="none"></path></g><g transform="translate(507.2463729528597 216.19553963467968) rotate(0 48.479285830013964 0.7648464226510328)"><path d="M70.49 10.77 C77.2 7.68, 82.1 3.57, 96.62 1.99 M68.56 9.47 C77.64 7.73, 85.34 3.45, 97.42 0.25" stroke="#000000" stroke-width="1" fill="none"></path></g><g transform="translate(507.2463729528597 216.19553963467968) rotate(0 48.479285830013964 0.7648464226510328)"><path d="M70.91 -9.75 C77.62 -7.64, 82.42 -6.56, 96.62 1.99 M68.99 -11.04 C78.11 -6.71, 85.69 -4.91, 97.42 0.25" stroke="#000000" stroke-width="1" fill="none"></path></g></g><g transform="translate(343.8751326340623 34.33914614749614) rotate(0 37.68995098496407 10.830445685334524)"><text x="37.68995098496409" y="15.660891370669031" font-family="Virgil, Segoe UI Emoji" font-size="17.32871309653522px" fill="#000000" text-anchor="middle" style="white-space: pre;" direction="ltr">cancelled</text></g><g transform="translate(414.20340437648144 200.98989161500583) rotate(0 36.8235153301373 10.830445685334496)"><text x="36.82351533013731" y="15.660891370669031" font-family="Virgil, Segoe UI Emoji" font-size="17.328713096535218px" fill="#000000" text-anchor="middle" style="white-space: pre;" direction="ltr">preparing</text></g><g transform="translate(620.7506854464659 202.29259157466572) rotate(0 23.39376268032254 10.830445685334496)"><text x="23.393762680322535" y="15.660891370669031" font-family="Virgil, Segoe UI Emoji" font-size="17.328713096535225px" fill="#000000" text-anchor="middle" style="white-space: pre;" direction="ltr">ready</text></g><g stroke-linecap="round" transform="translate(332.8741862111391 10) rotate(0 49.60344123883209 35.3072529341905)"><path d="M64.74 2.52 C73.46 3.93, 82.72 8.4, 88.61 13.49 C94.49 18.57, 99.38 26.53, 100.05 33.02 C100.72 39.52, 97.33 46.77, 92.62 52.48 C87.91 58.19, 80.24 64.16, 71.79 67.28 C63.34 70.39, 51.16 72.25, 41.89 71.15 C32.63 70.05, 23 65.3, 16.19 60.68 C9.39 56.06, 3.18 49.95, 1.06 43.44 C-1.06 36.94, -0.17 27.93, 3.48 21.65 C7.13 15.37, 15.11 9.25, 22.97 5.75 C30.83 2.24, 43.12 1.04, 50.64 0.61 C58.16 0.19, 64.76 2.58, 68.09 3.2 C71.41 3.82, 71.14 4.03, 70.59 4.34 M55.43 1.39 C64.45 1.57, 74.81 4.98, 81.88 9.32 C88.95 13.67, 95.7 21.33, 97.87 27.47 C100.03 33.61, 97.95 40.28, 94.89 46.16 C91.82 52.04, 86.93 58.49, 79.48 62.74 C72.03 66.99, 59.76 71.35, 50.19 71.67 C40.62 71.99, 29.86 68.44, 22.08 64.68 C14.31 60.91, 6.97 55.33, 3.52 49.09 C0.06 42.86, -0.87 33.93, 1.35 27.27 C3.58 20.61, 10.08 13.39, 16.86 9.15 C23.65 4.9, 35.46 3.22, 42.06 1.82 C48.66 0.42, 53.98 0.92, 56.45 0.76 C58.93 0.59, 57.29 0.19, 56.9 0.83" stroke="#000000" stroke-width="1" fill="none"></path></g><g transform="translate(189.40371883383034 175.07329862677955) rotate(0 25.99306964480286 10.830445685334496)"><text x="25.993069644802834" y="15.660891370669031" font-family="Virgil, Segoe UI Emoji" font-size="17.328713096535232px" fill="#000000" text-anchor="middle" style="white-space: pre;" direction="ltr">unpaid</text></g><g transform="translate(802.8749975607573 200.750726183486) rotate(0 42.02212925909794 10.830445685334496)"><text x="42.022129259097895" y="15.660891370669031" font-family="Virgil, Segoe UI Emoji" font-size="17.328713096535232px" fill="#000000" text-anchor="middle" style="white-space: pre;" direction="ltr">Completed</text></g><g stroke-linecap="round" transform="translate(1003.8880694805653 196.63515682306092) rotate(0 17.978539837655262 16.02905961429508)"><path d="M22.97 0.3 C26.63 0.85, 30.89 3.72, 33.19 6.7 C35.48 9.67, 37.35 14.67, 36.75 18.15 C36.15 21.62, 32.5 25.1, 29.58 27.52 C26.66 29.95, 22.93 32.55, 19.24 32.7 C15.54 32.85, 10.6 30.54, 7.42 28.43 C4.25 26.32, 0.91 23.37, 0.17 20.05 C-0.56 16.73, 1.34 11.66, 3.02 8.51 C4.71 5.36, 6.29 2.12, 10.29 1.14 C14.3 0.15, 23.8 1.85, 27.03 2.6 C30.26 3.36, 29.93 5.59, 29.68 5.64 M17.75 -0.4 C21.33 -0.47, 27.18 2.19, 30.32 4.43 C33.46 6.67, 36.11 9.76, 36.57 13.02 C37.04 16.28, 35.38 21.03, 33.11 24.01 C30.84 26.98, 26.8 29.89, 22.96 30.87 C19.12 31.84, 13.43 31.26, 10.07 29.87 C6.71 28.48, 4.41 25.5, 2.81 22.53 C1.21 19.56, -0.05 15.35, 0.47 12.05 C1 8.74, 3.09 4.7, 5.98 2.7 C8.86 0.7, 15.48 0.51, 17.79 0.03 C20.1 -0.45, 19.66 -0.33, 19.82 -0.18" stroke="#000000" stroke-width="4" fill="none"></path></g><g transform="translate(997.3898020693655 243.93563336234934) rotate(0 29.458812264109838 10.830445685334496)"><text x="0" y="15.660891370669031" font-family="Virgil, Segoe UI Emoji" font-size="17.328713096535232px" fill="#000000" text-anchor="start" style="white-space: pre;" direction="ltr">Archive</text></g><g stroke-linecap="round"><g transform="translate(904.7788705232899 214.93131896531406) rotate(0 45.5767393748655 -1.0025623276274587)"><path d="M0.48 -1.11 C15.31 -1.56, 74.64 -2.88, 89.5 -2.92 M-0.73 0.92 C14.46 0.63, 76.99 -1.09, 91.88 -1.78" stroke="#000000" stroke-width="1" fill="none"></path></g><g transform="translate(904.7788705232899 214.93131896531406) rotate(0 45.5767393748655 -1.0025623276274587)"><path d="M62.22 8.44 C72.34 4.71, 84.48 3.03, 90.77 -2.77 M63.3 9.91 C73.94 5, 82.15 1.66, 92.28 -2.2" stroke="#000000" stroke-width="1" fill="none"></path></g><g transform="translate(904.7788705232899 214.93131896531406) rotate(0 45.5767393748655 -1.0025623276274587)"><path d="M61.5 -12.07 C71.83 -8.79, 84.21 -3.46, 90.77 -2.77 M62.58 -10.6 C73.34 -8.87, 81.78 -5.55, 92.28 -2.2" stroke="#000000" stroke-width="1" fill="none"></path></g></g><g transform="translate(440.2151985227965 36.58088622119601) rotate(0 287.2387016698268 64.84003529431354)" stroke="none" fill="#000000"><path d="M 0,-2.69 Q 0,-2.69 1.11,-3.19 2.23,-3.70 3.92,-4.42 5.62,-5.14 6.60,-5.64 7.59,-6.14 8.96,-6.65 10.33,-7.16 11.91,-7.63 13.49,-8.10 15.62,-8.56 17.75,-9.03 20.74,-9.60 23.73,-10.18 26.54,-10.67 29.35,-11.17 32.44,-11.52 35.52,-11.87 38.79,-12.14 42.06,-12.41 46.30,-12.53 50.54,-12.65 54.56,-12.70 58.58,-12.75 62.52,-12.77 66.46,-12.79 70.65,-12.80 74.84,-12.81 80.21,-12.94 85.58,-13.08 90.44,-13.01 95.31,-12.94 99.75,-12.79 104.19,-12.63 108.32,-12.44 112.44,-12.25 116.74,-11.92 121.04,-11.58 125.07,-11.31 129.09,-11.05 134.61,-10.55 140.13,-10.06 144.53,-9.72 148.93,-9.39 153.07,-9.00 157.21,-8.60 162.56,-8.18 167.91,-7.77 172.69,-7.46 177.46,-7.16 181.86,-6.90 186.26,-6.65 190.37,-6.41 194.47,-6.18 198.90,-5.82 203.33,-5.47 208.98,-4.94 214.64,-4.41 219.51,-4.06 224.38,-3.71 228.73,-3.31 233.08,-2.90 237.43,-2.48 241.78,-2.05 246.99,-1.49 252.20,-0.93 256.91,-0.44 261.63,0.03 265.74,0.50 269.85,0.96 273.82,1.41 277.79,1.86 281.85,2.30 285.90,2.74 290.67,3.17 295.45,3.61 299.87,4.05 304.29,4.49 308.18,5.06 312.07,5.64 315.69,6.26 319.30,6.89 323.44,7.52 327.59,8.16 331.78,8.95 335.97,9.73 339.73,10.58 343.50,11.43 347.01,12.16 350.52,12.89 353.75,13.72 356.99,14.55 360.93,15.80 364.87,17.06 368.34,18.22 371.81,19.38 374.93,20.37 378.06,21.36 381.18,22.28 384.30,23.20 388.63,24.20 392.95,25.21 396.76,26.01 400.56,26.82 404.30,27.67 408.04,28.53 411.46,29.40 414.89,30.28 418.11,31.02 421.34,31.76 424.70,32.58 428.05,33.41 432.03,34.53 436.00,35.65 439.41,36.77 442.81,37.89 446.10,39.14 449.39,40.39 453.30,41.92 457.20,43.46 460.56,44.88 463.92,46.31 467.02,47.67 470.13,49.04 473.05,50.53 475.97,52.03 478.64,53.57 481.31,55.11 484.29,57.05 487.28,58.99 490.02,60.66 492.76,62.33 495.35,63.94 497.93,65.55 500.27,66.98 502.61,68.41 505.47,70.32 508.33,72.22 510.90,73.89 513.48,75.57 515.71,77.05 517.94,78.53 520.00,79.91 522.07,81.30 523.96,82.68 525.86,84.05 527.87,85.86 529.89,87.66 531.39,89.40 532.89,91.15 534.06,92.63 535.23,94.11 536.29,95.50 537.35,96.90 538.27,98.33 539.20,99.76 540.24,101.31 541.29,102.87 542.24,104.09 543.20,105.32 544.16,106.46 545.12,107.61 545.95,108.62 546.79,109.63 547.84,110.53 548.89,111.43 549.82,112.27 550.75,113.10 551.62,113.76 552.49,114.42 554.08,115.72 555.66,117.01 556.90,118.13 558.13,119.25 559.31,120.66 560.49,122.06 561.57,123.62 562.64,125.17 563.46,126.56 564.28,127.94 565.24,129.27 566.21,130.60 567.13,131.55 568.04,132.50 569.12,133.63 570.20,134.76 570.88,135.70 571.56,136.64 571.83,137.95 572.09,139.25 571.24,140.91 570.39,142.56 568.48,142.68 566.57,142.80 564.94,141.98 563.31,141.17 561.87,139.93 560.43,138.69 559.23,137.91 558.02,137.13 556.76,136.22 555.50,135.31 554.13,134.74 552.77,134.18 551.21,133.86 549.65,133.55 548.62,133.09 547.59,132.64 546.41,131.78 545.23,130.91 544.51,130.62 543.78,130.33 543.53,130.06 543.28,129.80 543.10,129.48 542.92,129.16 542.82,128.81 542.72,128.46 542.71,128.10 542.69,127.73 542.77,127.37 542.85,127.02 543.00,126.69 543.16,126.36 543.40,126.08 543.63,125.80 543.92,125.58 544.22,125.36 544.55,125.22 544.89,125.08 545.25,125.02 545.61,124.97 545.98,125.00 546.34,125.03 546.68,125.15 547.03,125.27 547.34,125.46 547.65,125.66 545.88,125.60 544.11,125.55 545.48,125.23 546.85,124.91 547.99,125.29 549.12,125.67 550.62,126.72 552.12,127.78 553.39,128.48 554.66,129.18 555.84,129.91 557.02,130.65 558.10,131.02 559.18,131.40 560.58,131.28 561.97,131.15 563.09,131.30 564.22,131.45 565.73,131.76 567.24,132.08 568.54,132.77 569.85,133.46 568.74,133.72 567.63,133.97 568.25,132.91 568.87,131.84 569.64,129.59 570.41,127.33 570.69,126.19 570.98,125.05 572.79,123.09 574.59,121.13 574.39,121.20 574.19,121.26 573.98,121.26 573.77,121.26 573.56,121.19 573.36,121.12 573.20,120.99 573.03,120.86 572.91,120.69 572.79,120.51 572.74,120.30 572.68,120.10 572.69,119.89 572.71,119.68 572.79,119.48 572.87,119.28 573.01,119.12 573.14,118.96 573.33,118.85 573.51,118.74 573.72,118.70 573.93,118.66 574.14,118.68 574.35,118.70 574.54,118.80 574.73,118.89 574.89,119.03 575.04,119.18 575.14,119.37 575.23,119.56 575.27,119.77 575.30,119.98 575.26,120.19 575.23,120.40 575.13,120.58 575.03,120.77 574.87,120.91 574.72,121.06 574.52,121.15 574.33,121.24 574.12,121.26 573.91,121.28 573.70,121.23 573.49,121.18 573.31,121.07 573.13,120.96 572.99,120.80 572.86,120.64 572.78,120.44 572.70,120.24 572.69,120.03 572.68,119.82 572.74,119.61 572.80,119.41 572.92,119.23 573.04,119.06 573.21,118.93 573.38,118.80 573.38,118.80 573.38,118.80 575.37,121.31 577.35,123.83 577.18,125.20 577.00,126.58 576.63,128.00 576.26,129.42 575.83,130.63 575.39,131.84 574.63,133.79 573.87,135.73 573.07,136.84 572.28,137.95 570.59,138.56 568.90,139.16 567.87,138.82 566.83,138.47 565.81,137.95 564.78,137.43 563.55,137.27 562.32,137.10 560.85,137.23 559.39,137.36 557.92,137.11 556.46,136.85 555.00,136.14 553.54,135.43 552.62,134.86 551.69,134.29 550.54,133.64 549.38,132.98 548.42,131.64 547.47,130.30 545.62,130.32 543.78,130.33 543.53,130.06 543.28,129.80 543.10,129.48 542.92,129.16 542.82,128.81 542.72,128.46 542.71,128.10 542.69,127.73 542.77,127.37 542.85,127.02 543.00,126.69 543.16,126.36 543.40,126.08 543.63,125.80 543.92,125.58 544.22,125.36 544.55,125.22 544.89,125.08 545.25,125.02 545.61,124.97 545.98,125.00 546.34,125.03 546.68,125.15 547.03,125.27 547.34,125.46 547.64,125.66 547.91,125.85 548.17,126.03 549.35,126.86 550.53,127.70 551.79,127.91 553.05,128.12 554.62,128.52 556.19,128.92 557.33,129.43 558.47,129.93 559.32,130.61 560.16,131.29 561.42,132.17 562.68,133.06 564.07,134.17 565.46,135.28 566.68,136.21 567.90,137.15 566.78,137.88 565.66,138.61 564.76,137.65 563.87,136.70 562.69,135.45 561.51,134.20 560.84,133.31 560.16,132.42 559.25,130.90 558.34,129.39 557.60,128.15 556.87,126.92 555.94,125.71 555.01,124.50 554.02,123.47 553.04,122.45 551.91,121.31 550.77,120.17 549.89,119.56 549.00,118.96 547.97,118.16 546.94,117.35 546.02,116.53 545.10,115.70 543.76,114.48 542.42,113.27 541.58,112.26 540.75,111.25 539.73,110.02 538.71,108.80 537.65,107.42 536.58,106.04 535.50,104.43 534.42,102.83 533.62,101.58 532.83,100.33 531.80,98.98 530.78,97.63 529.67,96.23 528.56,94.82 527.33,93.35 526.09,91.87 524.30,90.26 522.52,88.64 520.71,87.33 518.90,86.01 516.85,84.63 514.80,83.25 512.59,81.79 510.39,80.33 507.78,78.64 505.18,76.94 502.41,75.10 499.65,73.25 497.29,71.81 494.93,70.36 492.37,68.77 489.80,67.17 486.99,65.46 484.18,63.74 481.33,61.88 478.47,60.01 475.93,58.54 473.39,57.07 470.62,55.64 467.85,54.22 464.78,52.87 461.71,51.52 458.42,50.13 455.12,48.73 451.26,47.21 447.39,45.68 444.21,44.48 441.04,43.27 437.75,42.19 434.47,41.10 430.58,40.01 426.70,38.91 423.38,38.09 420.07,37.28 416.78,36.52 413.49,35.77 410.13,34.91 406.77,34.05 403.07,33.20 399.38,32.35 395.53,31.52 391.68,30.70 387.19,29.65 382.70,28.61 379.53,27.67 376.35,26.73 373.19,25.73 370.03,24.73 366.59,23.58 363.15,22.43 359.37,21.22 355.59,20.01 352.48,19.21 349.37,18.41 345.81,17.67 342.26,16.93 338.59,16.10 334.93,15.28 330.83,14.51 326.73,13.74 322.53,13.09 318.34,12.44 314.79,11.83 311.25,11.22 307.49,10.66 303.73,10.10 299.33,9.66 294.93,9.22 290.11,8.77 285.29,8.33 281.23,7.88 277.16,7.44 273.19,6.99 269.22,6.54 265.13,6.08 261.05,5.62 256.32,5.13 251.60,4.64 246.42,4.08 241.24,3.53 236.90,3.10 232.56,2.68 228.27,2.28 223.98,1.88 219.05,1.53 214.11,1.17 208.50,0.65 202.88,0.12 198.52,-0.22 194.15,-0.57 190.05,-0.81 185.94,-1.04 181.52,-1.30 177.10,-1.55 172.29,-1.86 167.47,-2.17 162.07,-2.59 156.68,-3.02 152.59,-3.41 148.51,-3.80 144.07,-4.14 139.62,-4.48 134.17,-4.98 128.72,-5.47 124.66,-5.74 120.61,-6.00 116.39,-6.34 112.18,-6.67 108.09,-6.87 104.00,-7.06 99.61,-7.22 95.22,-7.38 90.47,-7.46 85.72,-7.53 80.28,-7.40 74.85,-7.28 70.67,-7.27 66.49,-7.26 62.57,-7.24 58.65,-7.22 54.67,-7.17 50.69,-7.12 46.60,-7.01 42.52,-6.90 39.33,-6.64 36.14,-6.37 33.23,-6.05 30.31,-5.73 27.54,-5.24 24.77,-4.75 21.85,-4.19 18.92,-3.63 16.99,-3.21 15.05,-2.80 13.63,-2.38 12.21,-1.96 10.23,-1.16 8.24,-0.35 6.32,0.38 4.41,1.13 3.32,1.14 2.23,1.15 1.11,0.64 0,0.14 -0.16,0.12 -0.33,0.10 -0.49,0.04 -0.65,-0.01 -0.79,-0.11 -0.93,-0.21 -1.05,-0.34 -1.16,-0.46 -1.24,-0.62 -1.32,-0.77 -1.36,-0.93 -1.40,-1.10 -1.40,-1.27 -1.40,-1.44 -1.36,-1.61 -1.32,-1.77 -1.24,-1.92 -1.16,-2.07 -1.05,-2.20 -0.93,-2.33 -0.79,-2.43 -0.65,-2.52 -0.49,-2.59 -0.33,-2.65 -0.16,-2.67 0.00,-2.69 0.00,-2.69 L 0,-2.69 Z"></path></g><g stroke-linecap="round"><g transform="translate(71.99993024721687 190.9304995490071) rotate(0 42.5253772720925 -2.1251689378860874)"><path d="M-0.09 -0.23 C14.43 -0.47, 72.43 -1.83, 86.65 -2.14 M-1.6 -1.4 C12.9 -1.94, 71.97 -3.56, 86.29 -4.02" stroke="#000000" stroke-width="4" fill="none"></path></g><g transform="translate(71.99993024721687 190.9304995490071) rotate(0 42.5253772720925 -2.1251689378860874)"><path d="M58.02 8.92 C66.53 3.72, 73.88 3.3, 84.39 -3.24 M58.19 6.22 C70.03 3.81, 80 -2.05, 87.28 -4.87" stroke="#000000" stroke-width="4" fill="none"></path></g><g transform="translate(71.99993024721687 190.9304995490071) rotate(0 42.5253772720925 -2.1251689378860874)"><path d="M57.42 -11.59 C65.95 -11.45, 73.47 -6.52, 84.39 -3.24 M57.58 -14.29 C69.58 -8.59, 79.78 -6.35, 87.28 -4.87" stroke="#000000" stroke-width="4" fill="none"></path></g></g><g stroke-linecap="round" transform="translate(10 171.170984455959) rotate(0 21.385146804836012 18.51640759930916)"><path d="M28.7 0.85 C32.75 1.9, 38.28 5.24, 40.41 8.72 C42.55 12.2, 42.54 17.52, 41.52 21.71 C40.49 25.89, 37.61 31.24, 34.27 33.82 C30.92 36.4, 26.08 37.45, 21.45 37.17 C16.82 36.9, 9.88 34.84, 6.47 32.15 C3.07 29.47, 1.46 24.93, 1.02 21.06 C0.57 17.19, 1.68 12.13, 3.79 8.92 C5.91 5.72, 9.21 2.82, 13.7 1.84 C18.2 0.87, 27.37 2.85, 30.78 3.08 C34.19 3.31, 34.19 2.98, 34.16 3.24 M25.98 0.28 C30.15 1.13, 37.07 5.73, 40.01 8.99 C42.95 12.25, 44.43 16.08, 43.61 19.82 C42.8 23.57, 38.35 28.84, 35.11 31.46 C31.87 34.08, 28.76 35.17, 24.18 35.55 C19.59 35.93, 11.3 36.02, 7.62 33.75 C3.94 31.49, 2.83 25.9, 2.1 21.95 C1.37 18, 1.35 13.24, 3.25 10.03 C5.16 6.82, 9.29 3.99, 13.55 2.68 C17.82 1.37, 26.37 2.55, 28.85 2.19 C31.33 1.82, 28.89 0.48, 28.44 0.48" stroke="none" stroke-width="0" fill="#fab005"></path><path d="M23.8 0.66 C28.01 0.88, 33.6 3.26, 36.77 6.32 C39.94 9.38, 42.6 15.19, 42.82 19.03 C43.03 22.87, 41.01 26.33, 38.07 29.38 C35.13 32.42, 29.53 36.45, 25.18 37.31 C20.82 38.17, 15.92 36.63, 11.96 34.53 C8 32.44, 3.37 28.33, 1.43 24.74 C-0.51 21.14, -1.05 16.7, 0.34 12.95 C1.72 9.2, 5.09 4.15, 9.75 2.25 C14.41 0.34, 24.78 1.46, 28.31 1.51 C31.84 1.56, 31.22 2.45, 30.95 2.56 M21.35 -1.34 C25.73 -1.8, 31.27 0.66, 34.7 3.28 C38.13 5.9, 41.22 10.3, 41.96 14.39 C42.7 18.47, 41.01 24.07, 39.13 27.8 C37.25 31.54, 34.64 35.2, 30.67 36.77 C26.69 38.35, 19.68 38.73, 15.28 37.26 C10.89 35.79, 6.57 31.49, 4.28 27.94 C1.98 24.38, 1.14 19.88, 1.52 15.92 C1.89 11.96, 3.28 6.77, 6.52 4.19 C9.76 1.61, 18.58 1.07, 20.94 0.44 C23.3 -0.18, 20.83 0.1, 20.66 0.44" stroke="#000000" stroke-width="4" fill="none"></path></g><g stroke-linecap="round" transform="translate(276.01036269430165 103.36442141623468) rotate(0 19.298791018998315 16.169257340241842)"><path d="M12.36 0.47 C15.8 -0.95, 21.51 -0.74, 25.35 0.37 C29.2 1.48, 33.18 4.28, 35.45 7.12 C37.72 9.96, 39.51 13.84, 38.98 17.41 C38.45 20.98, 35.42 26.19, 32.26 28.53 C29.1 30.87, 24.25 31.42, 20.02 31.44 C15.79 31.47, 10.14 30.59, 6.89 28.68 C3.64 26.78, 1.4 23.22, 0.51 20.02 C-0.37 16.81, -0.69 12.57, 1.58 9.45 C3.85 6.33, 11.85 2.78, 14.13 1.29 C16.42 -0.2, 15.1 0.23, 15.29 0.53 M27.72 1.47 C31.62 2.58, 35.86 6.8, 37.73 10.04 C39.6 13.28, 40.39 17.87, 38.94 20.92 C37.5 23.97, 32.43 26.66, 29.06 28.34 C25.69 30.02, 22.65 31.1, 18.7 30.99 C14.74 30.88, 8.68 29.65, 5.34 27.67 C2 25.69, -0.87 22.61, -1.36 19.12 C-1.86 15.63, -0.24 9.83, 2.34 6.71 C4.93 3.6, 10.21 1.35, 14.15 0.43 C18.09 -0.49, 23.87 0.89, 25.98 1.18 C28.09 1.46, 26.7 1.92, 26.79 2.14" stroke="none" stroke-width="0" fill="#fab005"></path><path d="M22.52 0.86 C26.39 1.21, 30.77 2.69, 33.6 5.25 C36.42 7.81, 39.41 12.86, 39.47 16.23 C39.52 19.6, 36.58 22.67, 33.93 25.46 C31.28 28.24, 27.45 32.18, 23.57 32.94 C19.68 33.7, 14.34 31.78, 10.62 30.02 C6.9 28.27, 2.94 25.67, 1.26 22.4 C-0.43 19.14, -0.8 13.66, 0.52 10.43 C1.85 7.2, 5.57 4.76, 9.21 3.03 C12.84 1.31, 19.88 0.43, 22.32 0.08 C24.75 -0.26, 23.61 0.67, 23.82 0.95 M27.54 -0.13 C30.92 1.3, 34.36 7.07, 36.05 10.4 C37.74 13.74, 38.41 16.73, 37.68 19.86 C36.95 23, 34.96 27.2, 31.68 29.24 C28.4 31.27, 22.06 32.25, 18.01 32.1 C13.95 31.95, 10.12 30.85, 7.36 28.32 C4.61 25.79, 2.36 20.51, 1.46 16.91 C0.57 13.3, 0 9.45, 1.97 6.69 C3.95 3.93, 8.98 1.35, 13.3 0.35 C17.62 -0.64, 25.79 0.25, 27.89 0.71 C29.99 1.18, 26.14 2.77, 25.89 3.15" stroke="#000000" stroke-width="4" fill="none"></path></g><g stroke-linecap="round" transform="translate(208.20379965457698 276.53195164075987) rotate(0 19.037996545768635 17.734024179620064)"><path d="M25.85 1.21 C29.54 2.51, 33.42 6.32, 35.45 9.67 C37.47 13.01, 38.72 17.64, 38 21.29 C37.28 24.94, 34.5 29.26, 31.13 31.56 C27.76 33.85, 22.06 35.08, 17.77 35.05 C13.48 35.02, 8.17 33.77, 5.38 31.39 C2.6 29.01, 1.35 24.56, 1.07 20.78 C0.79 17, 1.82 12.12, 3.69 8.7 C5.56 5.29, 8.12 1.24, 12.3 0.3 C16.49 -0.64, 25.51 2.14, 28.8 3.05 C32.09 3.97, 32.24 5.58, 32.05 5.79 M25.51 -0.75 C29.53 0.27, 34.01 5.53, 35.84 9.01 C37.67 12.5, 36.99 16.45, 36.49 20.14 C35.99 23.83, 35.54 28.38, 32.85 31.15 C30.17 33.91, 24.46 36.7, 20.36 36.73 C16.27 36.76, 11.4 33.8, 8.3 31.32 C5.2 28.83, 2.65 25.37, 1.76 21.82 C0.88 18.27, 1.22 13.31, 2.99 10.01 C4.77 6.7, 8.91 3.53, 12.41 1.99 C15.9 0.45, 21.82 1.07, 23.98 0.76 C26.13 0.45, 25.59 -0.22, 25.34 0.13" stroke="none" stroke-width="0" fill="#fab005"></path><path d="M12.32 0.15 C15.79 -1.44, 20.96 -0.81, 24.84 0.69 C28.72 2.19, 33.53 5.67, 35.6 9.15 C37.67 12.62, 37.95 17.71, 37.27 21.52 C36.58 25.34, 34.67 29.71, 31.48 32.03 C28.29 34.35, 22.1 35.43, 18.12 35.44 C14.15 35.45, 10.46 34.58, 7.63 32.08 C4.79 29.59, 1.81 24.3, 1.11 20.47 C0.42 16.63, 0.98 12.32, 3.46 9.06 C5.93 5.81, 13.22 2.27, 15.96 0.93 C18.7 -0.42, 19.76 0.98, 19.89 0.99 M12.55 0.84 C15.77 -0.07, 20.88 1.24, 24.59 2.6 C28.29 3.95, 32.57 5.87, 34.76 8.96 C36.96 12.05, 38.62 17.39, 37.75 21.13 C36.89 24.86, 32.85 28.92, 29.59 31.37 C26.34 33.83, 22.06 36, 18.21 35.87 C14.36 35.74, 9.58 33.35, 6.48 30.6 C3.39 27.85, 0.36 22.88, -0.37 19.37 C-1.09 15.85, -0.33 12.46, 2.14 9.52 C4.61 6.58, 12.44 2.97, 14.47 1.75 C16.5 0.52, 14.35 1.94, 14.32 2.17" stroke="#000000" stroke-width="4" fill="none"></path></g><g stroke-linecap="round" transform="translate(302.6113989637322 181.60276338514643) rotate(0 21.124352331606246 17.9948186528498)"><path d="M28.89 1.46 C33.2 2.61, 37.33 6.69, 39.57 9.9 C41.81 13.11, 43 17.08, 42.32 20.73 C41.64 24.38, 38.92 29.22, 35.48 31.79 C32.05 34.35, 26.28 36.07, 21.72 36.12 C17.16 36.17, 11.75 34.61, 8.13 32.1 C4.51 29.59, 0.76 25.05, -0.01 21.09 C-0.78 17.13, 1.35 11.61, 3.51 8.32 C5.68 5.03, 8.35 2.4, 13 1.34 C17.64 0.28, 28.04 1.62, 31.4 1.97 C34.75 2.31, 33.39 3.16, 33.13 3.4 M29.23 2.83 C33.24 4.01, 36.58 8.07, 38.8 11.04 C41.02 14.02, 43.16 17.05, 42.54 20.69 C41.92 24.32, 38.67 30.35, 35.11 32.85 C31.55 35.35, 26.04 36.12, 21.17 35.7 C16.31 35.27, 9.33 32.82, 5.91 30.3 C2.49 27.78, 1.11 24.16, 0.65 20.58 C0.18 16.99, 0.95 12.18, 3.11 8.81 C5.28 5.44, 9.49 1.73, 13.64 0.37 C17.79 -1, 25.48 0.61, 28 0.63 C30.51 0.66, 28.84 0.11, 28.72 0.5" stroke="none" stroke-width="0" fill="#fab005"></path><path d="M30.38 1.69 C34.34 3.08, 37.74 6.88, 39.55 10.46 C41.36 14.04, 42.33 19.49, 41.25 23.18 C40.16 26.87, 36.81 30.61, 33.04 32.62 C29.26 34.63, 23.18 35.48, 18.59 35.26 C14 35.03, 8.44 33.81, 5.51 31.25 C2.59 28.68, 1.14 23.72, 1.02 19.86 C0.9 16, 2.22 11.23, 4.79 8.08 C7.35 4.92, 12.09 1.78, 16.39 0.93 C20.7 0.09, 27.96 2.78, 30.61 3 C33.26 3.21, 32.51 2.17, 32.31 2.22 M20.41 -0.32 C24.91 -0.86, 30.99 0.97, 34.41 3.22 C37.83 5.48, 40.21 9.27, 40.93 13.21 C41.66 17.16, 40.44 23.15, 38.77 26.87 C37.09 30.59, 34.63 34.02, 30.87 35.53 C27.11 37.04, 21 37.33, 16.19 35.92 C11.39 34.52, 4.9 30.4, 2.05 27.1 C-0.79 23.81, -1.63 19.72, -0.86 16.16 C-0.09 12.6, 3.38 8.44, 6.65 5.73 C9.92 3.03, 16.39 0.91, 18.74 -0.08 C21.09 -1.06, 20.58 -0.65, 20.76 -0.16" stroke="#000000" stroke-width="4" fill="none"></path></g><g stroke-linecap="round" transform="translate(531.0673575129549 205.59585492228166) rotate(0 17.9948186528498 14.60449050086362)"><path d="M9.49 0.76 C12.62 -0.78, 17.11 -1.07, 21.04 -0.32 C24.97 0.43, 30.5 2.59, 33.07 5.28 C35.65 7.98, 36.62 12.61, 36.49 15.85 C36.36 19.08, 35 22.5, 32.29 24.67 C29.58 26.84, 24.18 28.46, 20.21 28.88 C16.24 29.3, 11.64 28.73, 8.47 27.17 C5.3 25.61, 2.51 22.63, 1.17 19.52 C-0.17 16.41, -1.64 11.56, 0.43 8.5 C2.5 5.43, 11.17 2.61, 13.59 1.16 C16.01 -0.29, 15.18 -0.49, 14.96 -0.2 M19.26 0.52 C22.85 0.64, 26.95 3.12, 29.77 4.91 C32.58 6.7, 35.29 8.52, 36.14 11.27 C37 14.03, 36.93 18.46, 34.89 21.45 C32.84 24.43, 27.95 28.1, 23.86 29.18 C19.78 30.26, 14.16 29.05, 10.38 27.93 C6.61 26.8, 3.04 24.86, 1.21 22.42 C-0.61 19.99, -1.45 16.57, -0.57 13.33 C0.31 10.08, 3.34 5.38, 6.49 2.97 C9.65 0.56, 16.2 -0.77, 18.35 -1.13 C20.49 -1.49, 19.33 0.26, 19.36 0.79" stroke="none" stroke-width="0" fill="#fab005"></path><path d="M14.56 -0.44 C17.87 -1.16, 22.86 -0.34, 26.22 1.2 C29.57 2.74, 33.23 5.66, 34.7 8.79 C36.17 11.92, 36.31 16.76, 35.05 19.99 C33.79 23.21, 30.41 26.6, 27.15 28.17 C23.88 29.74, 19.3 30.13, 15.47 29.4 C11.64 28.67, 6.72 26.26, 4.18 23.79 C1.65 21.32, 0.3 17.75, 0.25 14.6 C0.2 11.45, 0.92 7.34, 3.87 4.9 C6.83 2.46, 15.31 0.69, 17.98 -0.04 C20.66 -0.77, 20.09 0.22, 19.9 0.53 M17.31 -0.07 C20.97 -0.46, 25.67 0.22, 28.82 2.39 C31.97 4.55, 35.32 9.57, 36.22 12.91 C37.12 16.26, 36.14 19.77, 34.23 22.47 C32.32 25.16, 28.3 28.21, 24.76 29.09 C21.21 29.98, 16.55 28.96, 12.96 27.75 C9.38 26.54, 5.56 24.65, 3.27 21.85 C0.99 19.05, -1.15 14.17, -0.76 10.93 C-0.37 7.68, 2.41 4.2, 5.61 2.36 C8.81 0.53, 16.19 0.35, 18.42 -0.08 C20.64 -0.5, 18.88 -0.37, 18.96 -0.2" stroke="#000000" stroke-width="4" fill="none"></path></g><g stroke-linecap="round" transform="translate(702.6701208981015 203.50949913644263) rotate(0 17.734024179620064 16.16925734024187)"><path d="M18.16 0.23 C21.68 0.15, 26.02 1.99, 28.99 4.42 C31.96 6.84, 35.32 11.28, 35.99 14.81 C36.66 18.34, 35.18 22.83, 33.01 25.61 C30.83 28.39, 26.62 30.47, 22.96 31.51 C19.3 32.56, 14.65 33.29, 11.06 31.86 C7.48 30.44, 3.25 25.97, 1.44 22.94 C-0.37 19.9, -0.59 17.02, 0.19 13.65 C0.98 10.28, 2.63 4.93, 6.14 2.73 C9.64 0.52, 18.26 0.72, 21.22 0.41 C24.18 0.11, 23.99 0.64, 23.88 0.9 M10.51 -0.15 C13.96 -1.33, 20.06 -0.09, 23.98 1.04 C27.9 2.17, 32.31 3.92, 34.03 6.64 C35.76 9.36, 34.83 13.55, 34.32 17.35 C33.82 21.15, 33.81 26.71, 31.01 29.43 C28.21 32.14, 21.69 33.46, 17.51 33.62 C13.34 33.79, 9.07 32.93, 5.99 30.43 C2.9 27.92, -0.28 22.42, -0.97 18.59 C-1.66 14.76, 0.03 10.13, 1.85 7.45 C3.67 4.78, 8.23 3.44, 9.95 2.55 C11.67 1.65, 11.9 1.84, 12.19 2.07" stroke="none" stroke-width="0" fill="#fab005"></path><path d="M13.48 -0.19 C17.11 -0.86, 23.7 0.26, 27.09 1.97 C30.48 3.67, 32.49 6.72, 33.81 10.04 C35.14 13.35, 36.18 18.67, 35.03 21.85 C33.87 25.03, 30.37 27.49, 26.87 29.12 C23.36 30.75, 17.7 32.16, 14 31.62 C10.29 31.09, 7.02 28.59, 4.62 25.89 C2.23 23.19, -0.09 18.68, -0.36 15.41 C-0.63 12.13, 0.31 8.75, 3 6.24 C5.69 3.73, 13.62 1.17, 15.78 0.35 C17.95 -0.48, 15.98 1.21, 16.01 1.29 M19.47 -1.08 C22.73 -0.43, 27.64 3.93, 30.45 6.96 C33.26 9.99, 36.18 13.84, 36.3 17.1 C36.42 20.36, 33.97 23.92, 31.16 26.52 C28.36 29.12, 22.95 32.25, 19.47 32.7 C16 33.15, 13.1 30.83, 10.28 29.24 C7.47 27.65, 3.99 26.35, 2.6 23.16 C1.21 19.97, 0.83 13.37, 1.95 10.1 C3.08 6.84, 6.45 5.41, 9.37 3.55 C12.29 1.69, 17.66 -0.59, 19.5 -1.04 C21.33 -1.5, 20.26 0.59, 20.39 0.84" stroke="#000000" stroke-width="4" fill="none"></path></g><g transform="translate(28.255613126079766 176.6476683937833) rotate(0 3.1295336787564736 13.039723661485368)"><text x="3.129533678756485" y="18.07944732297072" font-family="Virgil, Segoe UI Emoji" font-size="20.863557858376574px" fill="#000000" text-anchor="middle" style="white-space: pre;" direction="ltr">1</text></g><g transform="translate(220.72193436960367 282.26943005181465) rotate(0 7.302245250431781 13.039723661485368)"><text x="7.302245250431801" y="18.07944732297072" font-family="Virgil, Segoe UI Emoji" font-size="20.863557858376584px" fill="#000000" text-anchor="middle" style="white-space: pre;" direction="ltr">2</text></g><g transform="translate(287.9756131260805 105.7115716753026) rotate(0 8.324559585492239 14.865284974093328)"><text x="8.324559585492254" y="20.730569948186634" font-family="Virgil, Segoe UI Emoji" font-size="23.78445595854932px" fill="#000000" text-anchor="middle" style="white-space: pre;" direction="ltr">3</text></g><g transform="translate(316.9550949913653 186.55785837651183) rotate(0 6.780656303972364 13.039723661485368)"><text x="6.78065630397239" y="18.07944732297072" font-family="Virgil, Segoe UI Emoji" font-size="20.863557858376584px" fill="#000000" text-anchor="middle" style="white-space: pre;" direction="ltr">4</text></g><g transform="translate(542.2815198618316 207.16062176165917) rotate(0 6.780656303972364 13.039723661485368)"><text x="6.78065630397239" y="18.07944732297072" font-family="Virgil, Segoe UI Emoji" font-size="20.863557858376584px" fill="#000000" text-anchor="middle" style="white-space: pre;" direction="ltr">5</text></g><g transform="translate(713.6234887737508 206.63903281519924) rotate(0 6.780656303972364 13.039723661485368)"><text x="6.78065630397239" y="18.07944732297072" font-family="Virgil, Segoe UI Emoji" font-size="20.863557858376584px" fill="#000000" text-anchor="middle" style="white-space: pre;" direction="ltr">6</text></g><g stroke-linecap="round" transform="translate(796.0345423143362 177.95164075993102) rotate(0 49.02936096718497 33.12089810017278)"><path d="M43.26 0.99 C51.77 -0.01, 63.25 1.31, 71.65 4.17 C80.06 7.04, 89.25 12.42, 93.67 18.18 C98.1 23.94, 99.78 32.44, 98.19 38.74 C96.6 45.04, 90.52 51.47, 84.14 55.98 C77.76 60.49, 69.03 64.48, 59.88 65.81 C50.74 67.13, 38.07 66.57, 29.26 63.92 C20.44 61.28, 11.75 55.45, 6.98 49.94 C2.2 44.44, 0.04 37.16, 0.6 30.88 C1.16 24.61, 4.81 17.19, 10.33 12.31 C15.86 7.43, 27.25 3.52, 33.77 1.62 C40.29 -0.27, 45.93 1.05, 49.48 0.94 C53.02 0.83, 55.04 0.41, 55.03 0.97 M40.62 0.21 C49.24 -1.68, 61 -0.2, 69.5 2.33 C78 4.85, 86.91 9.7, 91.61 15.36 C96.31 21.02, 98.22 29.9, 97.7 36.3 C97.19 42.7, 94.24 49.21, 88.52 53.76 C82.81 58.31, 72.31 61.75, 63.42 63.6 C54.52 65.44, 44.32 66.56, 35.15 64.82 C25.99 63.09, 14.08 58.04, 8.44 53.18 C2.8 48.31, 1.26 41.99, 1.3 35.64 C1.33 29.28, 4 20.61, 8.65 15.03 C13.3 9.45, 24 4.78, 29.22 2.16 C34.45 -0.47, 38.06 -0.59, 40.02 -0.73 C41.97 -0.86, 40.72 0.78, 40.98 1.37" stroke="#000000" stroke-width="1" fill="none"></path></g></svg>