<svg version="1.1" xmlns="http://www.w3.org/2000/svg" viewBox="0 0 469.5814585748185 177.49726335136995" width="469.5814585748185" height="177.49726335136995">
  <!-- svg-source:excalidraw -->
  
  <defs>
    <style>
      @font-face {
        font-family: "Virgil";
        src: url("https://excalidraw.com/Virgil.woff2");
      }
      @font-face {
        font-family: "Cascadia";
        src: url("https://excalidraw.com/Cascadia.woff2");
      }
    </style>
  </defs>
  <rect x="0" y="0" width="469.5814585748185" height="177.49726335136995" fill="#ffffff"></rect><g stroke-linecap="round" transform="translate(10 10) rotate(0 224.79072928740925 78.74863167568498)"><path d="M-0.65 -0.55 C165.16 2.16, 328.69 2.05, 448.81 -0.54 M0.17 -0.31 C157.27 1.98, 314.32 1.73, 449.48 -0.48 M447.87 0.6 C450.74 41.9, 448.89 89.06, 450.18 158.15 M449.51 0.36 C451.48 48.12, 450.93 94.09, 450.3 158.07 M448.91 158.23 C353.61 157.64, 257.65 158.81, 0.29 157.94 M449.86 157.96 C317.16 155.38, 183.93 155.94, 0.38 157.05 M0.84 156.59 C-2.15 101.35, 0.02 43.77, -0.66 -0.71 M-0.65 157.01 C-1.48 112.1, -1.43 67.71, -0.33 0.9" stroke="#000000" stroke-width="1" fill="none"></path></g><g stroke-linecap="round" transform="translate(135.36240567385767 61.44096204517189) rotate(0 37.260150959828024 27.324100754342055)"><path d="M-1.13 1.35 C28.54 -0.18, 56.08 -1.09, 73.4 0.98 M-0.65 0.59 C16.12 0.47, 31.53 -0.47, 73.54 -0.22 M75.12 -0.1 C72.83 18.79, 76.14 42.07, 75.17 54.67 M74.88 0.51 C75.7 21.18, 74.25 43.16, 75.09 53.78 M76.03 54.2 C45.9 53.26, 20.61 54.72, 0.92 54.55 M75.47 55.02 C55.09 54.14, 37.03 55.88, -0.92 55.25 M-0.91 52.95 C1 37.15, 0.1 18.03, -0.71 -0.28 M-0.49 54.62 C-0.27 33.23, 0.4 11.44, 0.9 0.91" stroke="#000000" stroke-width="1" fill="none"></path></g><g stroke-linecap="round" transform="translate(247.40066092174493 62.40873657204372) rotate(0 37.260150959828024 27.324100754342055)"><path d="M1.35 0.77 C15.54 0.96, 30.86 -0.7, 75.5 -1.73 M0.59 0.19 C16.63 0.16, 31.58 -0.5, 74.3 0.79 M74.43 -1.96 C72.11 20.42, 74.65 38.8, 74.54 56.42 M75.03 0.69 C74.44 20.51, 75.2 43.12, 73.65 55.36 M74.07 53.72 C49.26 56.69, 26.33 56.13, -0.1 53.81 M74.89 54.44 C58.14 56.31, 44.45 54.43, 0.6 54.94 M-1.69 55.17 C0.25 42.61, -0.89 30.61, -0.28 1.85 M-0.02 54.31 C0.38 39.35, 0.03 24.3, 0.91 0.34" stroke="#000000" stroke-width="1" fill="none"></path></g><g stroke-linecap="round" transform="translate(348.0418045510687 61.07773202746762) rotate(0 37.260150959828024 27.324100754342055)"><path d="M0.77 -0.69 C17.86 -2.1, 33.5 0.48, 72.8 -1.73 M0.19 0.73 C24.65 -0.65, 48.96 -0.66, 75.31 0.49 M72.56 -1.95 C76.03 12.33, 75.33 23.48, 76.29 56.43 M75.21 -0.04 C73.95 16.72, 75.29 31.13, 75.24 54.92 M73.59 53.78 C58.84 55.07, 41.12 54.38, -0.84 52.79 M74.32 53.7 C48.76 55.72, 20.16 55.52, 0.29 53.78 M0.53 55.13 C-0.12 35.3, -0.46 17.01, 1.85 -0.28 M-0.34 54.67 C0.59 41.49, 1.17 29.9, 0.34 0.31" stroke="#000000" stroke-width="1" fill="none"></path></g><g stroke-linecap="round" transform="translate(32.00046421110119 61.95604557807985) rotate(0 37.260150959828024 27.324100754342055)"><path d="M-0.69 0.54 C16.55 -1.41, 37.26 -2.01, 72.79 0.7 M0.73 -0.32 C17.34 -1.13, 34.88 0.65, 75.01 -0.85 M72.57 1.35 C75.09 18.69, 74.52 37.86, 76.31 54.5 M74.48 -0.76 C75.51 18.93, 73.93 37.44, 74.79 53.95 M73.65 56.13 C47.13 55.22, 18.45 53.46, -1.86 55.82 M73.57 55.61 C45.9 53.57, 16.3 54.79, -0.87 55.07 M0.48 54.28 C-0.2 40.03, 0.18 28.67, -0.28 -1.3 M0.02 54.97 C-0.31 41.83, 0.93 27.55, 0.31 -0.67" stroke="#000000" stroke-width="1" fill="none"></path></g><g transform="translate(39.06438306579048 72.90119862128643) rotate(0 15.60268523845184 5.821897477034327)"><text x="15.60268523845195" y="8.643794954068625" font-family="Virgil, Segoe UI Emoji" font-size="9.315035963254902px" fill="#000000" text-anchor="middle" style="white-space: pre;" direction="ltr">Leader</text></g><g transform="translate(146.85095239747534 73.00710801018681) rotate(0 17.698568330184344 5.821897477034327)"><text x="17.69856833018429" y="8.643794954068625" font-family="Virgil, Segoe UI Emoji" font-size="9.315035963254891px" fill="#000000" text-anchor="middle" style="white-space: pre;" direction="ltr">Follower</text></g><g transform="translate(255.00137213605285 76.24252071462195) rotate(0 17.698568330184344 5.821897477034327)"><text x="17.69856833018429" y="8.643794954068625" font-family="Virgil, Segoe UI Emoji" font-size="9.315035963254891px" fill="#000000" text-anchor="middle" style="white-space: pre;" direction="ltr">Follower</text></g><g transform="translate(356.1148333502847 70.78089922706397) rotate(0 17.698568330184344 5.821897477034327)"><text x="17.69856833018429" y="8.643794954068625" font-family="Virgil, Segoe UI Emoji" font-size="9.315035963254891px" fill="#000000" text-anchor="middle" style="white-space: pre;" direction="ltr">Follower</text></g><g stroke-linecap="round" transform="translate(181.93759970375004 89.38604150770357) rotate(0 11.488539616808794 9.470305514131667)"><path d="M7.26 1.07 C9.38 0.2, 12.98 -0.33, 15.23 0.01 C17.47 0.34, 19.46 1.23, 20.71 3.08 C21.96 4.93, 22.82 9.07, 22.72 11.12 C22.61 13.16, 21.74 14.04, 20.08 15.33 C18.42 16.62, 15.46 18.71, 12.76 18.86 C10.06 19.01, 5.84 17.35, 3.89 16.24 C1.94 15.13, 1.47 13.99, 1.06 12.2 C0.64 10.4, 0.24 7.23, 1.41 5.46 C2.59 3.68, 7.04 2.31, 8.1 1.57 C9.17 0.84, 7.78 0.93, 7.79 1.04 M12.11 -1.3 C14.81 -1.58, 18.16 0.82, 19.76 2.5 C21.36 4.18, 21.47 6.96, 21.71 8.76 C21.96 10.57, 22.34 11.56, 21.22 13.34 C20.1 15.11, 17.16 18.44, 14.99 19.41 C12.83 20.37, 10.47 20.07, 8.23 19.12 C6 18.18, 3.17 15.45, 1.59 13.75 C0 12.04, -1.88 10.71, -1.26 8.9 C-0.63 7.09, 3.31 4.62, 5.34 2.9 C7.37 1.18, 9.72 -1.16, 10.94 -1.42 C12.17 -1.67, 12.86 0.84, 12.69 1.38" stroke="#000000" stroke-width="1" fill="none"></path></g><g stroke-linecap="round" transform="translate(295.2178621156718 88.95657485370327) rotate(0 11.333284279548934 10.557036020483253)"><path d="M13.5 0.89 C15.85 1, 18.33 2, 19.7 3.57 C21.06 5.15, 21.5 7.97, 21.68 10.35 C21.87 12.73, 22.34 16.02, 20.8 17.84 C19.26 19.66, 14.97 21.11, 12.44 21.26 C9.91 21.4, 7.73 19.79, 5.61 18.72 C3.49 17.65, 0.48 16.74, -0.29 14.83 C-1.06 12.92, -0.01 9.35, 0.99 7.26 C1.98 5.17, 3.4 3.47, 5.69 2.29 C7.97 1.11, 13.2 0.38, 14.68 0.18 C16.16 -0.03, 14.63 0.89, 14.56 1.07 M5.81 1.83 C7.79 0.59, 12.56 -0.99, 15.27 -0.52 C17.99 -0.05, 21 2.66, 22.09 4.65 C23.19 6.64, 22.21 9.03, 21.86 11.4 C21.51 13.77, 21.58 17.26, 20 18.86 C18.42 20.47, 15.1 21.27, 12.39 21.03 C9.67 20.8, 5.58 18.61, 3.7 17.46 C1.82 16.32, 1.42 16.18, 1.12 14.14 C0.82 12.11, 1.13 7.26, 1.9 5.27 C2.66 3.28, 4.61 3.15, 5.7 2.2 C6.78 1.24, 7.94 -0.43, 8.39 -0.43" stroke="#000000" stroke-width="1" fill="none"></path></g><g stroke-linecap="round" transform="translate(392.4434736069802 89.17806682725961) rotate(0 12.885795011296977 10.867546695003)"><path d="M9.53 0.24 C11.84 -0.79, 15 -1.27, 17.41 -0.23 C19.82 0.82, 22.56 4.41, 24 6.48 C25.43 8.55, 26.47 10.04, 26 12.18 C25.54 14.32, 23.61 17.9, 21.21 19.33 C18.8 20.76, 14.26 20.76, 11.57 20.76 C8.87 20.75, 6.87 20.68, 5.02 19.3 C3.17 17.93, 0.84 14.69, 0.46 12.48 C0.09 10.28, 1.17 8.06, 2.78 6.08 C4.4 4.1, 8.59 1.45, 10.16 0.59 C11.73 -0.26, 12.18 0.97, 12.23 0.96 M18.47 1.1 C20.67 2.15, 21.93 4.81, 23.06 6.65 C24.18 8.49, 25.65 9.87, 25.22 12.15 C24.78 14.44, 22.43 18.65, 20.43 20.36 C18.43 22.07, 15.88 22.73, 13.22 22.42 C10.55 22.11, 6.85 19.98, 4.44 18.5 C2.03 17.02, -1.01 15.64, -1.22 13.54 C-1.42 11.44, 1.62 8.29, 3.2 5.91 C4.79 3.52, 5.68 -0.13, 8.28 -0.8 C10.89 -1.47, 17.56 1.45, 18.84 1.88 C20.11 2.31, 16.17 2.04, 15.92 1.79" stroke="#000000" stroke-width="1" fill="none"></path></g><g stroke-linecap="round" transform="translate(73.91819000702435 86.64084823985456) rotate(0 13.041050348556837 10.71229135774314)"><path d="M16.53 0.26 C18.92 0.61, 21.29 2.62, 23 4.66 C24.7 6.71, 27.1 10.15, 26.78 12.51 C26.46 14.88, 23.26 17.53, 21.08 18.85 C18.89 20.17, 16.48 20.25, 13.67 20.43 C10.86 20.61, 6.39 21.1, 4.22 19.94 C2.04 18.78, 1.1 15.64, 0.63 13.44 C0.17 11.24, 0.07 8.84, 1.43 6.73 C2.8 4.62, 6.05 1.69, 8.84 0.78 C11.63 -0.13, 16.43 1.18, 18.18 1.25 C19.93 1.33, 19.61 1.04, 19.34 1.24 M17.13 -0.61 C20.13 -0.36, 23.68 2.47, 25.04 4.45 C26.4 6.42, 25.62 8.85, 25.31 11.26 C24.99 13.67, 24.94 17.24, 23.14 18.91 C21.35 20.59, 17.62 21.49, 14.55 21.33 C11.47 21.17, 6.89 19.05, 4.67 17.94 C2.45 16.83, 1.7 16.7, 1.24 14.65 C0.78 12.6, 1.06 7.7, 1.92 5.64 C2.78 3.59, 3.74 3.43, 6.4 2.33 C9.07 1.23, 16.06 -0.74, 17.92 -0.95 C19.77 -1.16, 18.03 0.57, 17.55 1.08" stroke="#000000" stroke-width="1" fill="none"></path></g><g transform="translate(23.12001555816505 25.667218092553753) rotate(0 57.83860386897709 11.230796867762564)"><text x="0" y="15.461593735525124" font-family="Virgil, Segoe UI Emoji" font-size="17.969274988420096px" fill="#000000" text-anchor="start" style="white-space: pre;" direction="ltr">Partition-set</text></g></svg>